# xmcd CD database file
# Copyright (C) 1995-1998 Ti Kan
#
# Track frame offsets:
#	150
#	16007
#	38605
#	55880
#	67467
#	86347
#	103667
#	109587
#	119887
#	130410
#	152872
#	178667
#	189960
#	200617
#	211217
#	223975
#	237970
#	249230
#
# Disc length: 3458 seconds
#
# Revision: 1
# Processed by: cddbd v1.4b42PL0 Copyright (c) Steve Scherf et al.
# Submitted via: CDex 1.30
#
DISCID=060d8012
DTITLE=Eric Clapton and The Yardbirds - Eric's Blues
DYEAR=2001
DGENRE=Blues
TTITLE0=Louise
TTITLE1=Five Years Long
TTITLE2=Early In The Morning
TTITLE3=Pounds And Stomps
TTITLE4=They Call It Stormy Monday
TTITLE5=Big Boss Man
TTITLE6=Choker
TTITLE7=Eric's Blues
TTITLE8=A Certain Girl
TTITLE9=First Time I Met The Blues
TTITLE10=She's So Respectable
TTITLE11=Snake Drive
TTITLE12=West Coast Idea
TTITLE13=Got To Hurry
TTITLE14=Freight Loader
TTITLE15=Draggin' My Tail
TTITLE16=For Your Love
TTITLE17=I Wish You Would
EXTD=YEAR: 2001  ID3G:   0
EXTT0=
EXTT1=
EXTT2=
EXTT3=
EXTT4=
EXTT5=
EXTT6=
EXTT7=
EXTT8=
EXTT9=
EXTT10=
EXTT11=
EXTT12=
EXTT13=
EXTT14=
EXTT15=
EXTT16=
EXTT17=
PLAYORDER=
